# xmcd
#
# Track frame offsets:
#	150
#	16135
#	34325
#	51480
#
# Disc length: 1021 seconds
#
# Revision: 0
# Processed by: cddbd v1.5.2PL0 Copyright (c) Steve Scherf et al.
# Submitted via: audiograbber 1.83.01
#
DISCID=2e03fb04
DTITLE=Fierce - So Long [CD Single)
DYEAR=1999
DGENRE=Pop
TTITLE0=So Long (Radio Edit)
TTITLE1=So Long (Blacksmith Bishop-Brad Edit)(With Rap)
TTITLE2=So Long (G-Club Danny D Edit)
TTITLE3=So Long (Bump 'N' Flex Smoky Soul Mix)
EXTD=
EXTT0=
EXTT1=
EXTT2=
EXTT3=
PLAYORDER=
